<svg width="56" height="41" viewBox="0 0 56 41" fill="none" xmlns="http://www.w3.org/2000/svg">
<path d="M55.749 40.7942H23.8887V32.1924L43.2425 9.21679H31.8209C30.429 9.21679 29.1448 8.46761 28.4598 7.25587L24.7375 0.671631H55.5226V7.0423C55.5226 8.26336 55.0886 9.44473 54.298 10.3754L35.716 32.2491H50.6008C53.444 32.2491 55.749 34.5539 55.749 37.3972V40.7942Z" fill="#E8F54A"/>
<path d="M16.5966 40.8446L43.3501 9.25171L31.3717 32.6786L32.0078 40.7349L16.5966 40.8446Z" fill="#E8F54A"/>
<path d="M0.100708 4.51687C0.100708 2.38321 1.8313 0.654026 3.96495 0.655763L19.4804 0.668389C21.4071 0.669959 23.1715 1.74709 24.0534 3.45997L27.0173 9.21683L3.96619 9.24283C1.83205 9.24528 0.100708 7.51589 0.100708 5.38178V4.51687Z" fill="white"/>
<path d="M0.100708 20.5189C0.100708 18.0843 2.07436 16.1106 4.50898 16.1106H34.3662L26.7748 24.9272H4.50898C2.07436 24.9272 0.100708 22.9535 0.100708 20.5189Z" fill="white"/>
<path d="M8.91724 16.1106V40.3372L6.4435 40.3017C2.92584 40.2512 0.100708 37.3853 0.100708 33.8672L0.100709 21.2587C0.100709 18.4155 2.40561 16.1106 5.24885 16.1106H8.91724Z" fill="white"/>
<path d="M0.100708 31.978H21.2538L13.675 40.7946H5.24885C2.40561 40.7946 0.100708 38.4897 0.100708 35.6465V31.978Z" fill="white"/>
</svg>
