<svg width="221" height="35" viewBox="0 0 221 35" fill="none" xmlns="http://www.w3.org/2000/svg">
<path d="M22.7449 14.5199C22.836 13.8366 22.836 13.3355 22.836 12.5157C22.836 6.63999 20.0576 0.76416 11.9956 0.76416C4.38894 0.76416 0.608398 6.04782 0.608398 13.4722C0.608398 19.6667 3.97901 25.4514 11.7678 25.4514C19.1466 25.4514 21.7429 20.7144 22.5628 17.8448H16.0493C15.4116 19.2568 14.6373 20.35 11.9044 20.35C8.67051 20.35 7.16739 17.4804 7.16739 14.5199H22.7449ZM7.30407 10.5115C7.57731 7.59651 8.85276 5.45566 11.95 5.45566C15.1384 5.45566 16.2316 7.77863 16.277 10.5115H7.30407ZM26.6024 24.9048H45.687L46.4615 19.7578H34.2089L45.6415 6.41218V1.31076H27.1489V6.45775H38.2627L26.6024 19.9856V24.9048ZM48.9708 1.31076L57.5795 25.6335C56.6685 28.2299 55.4842 29.0497 53.0701 29.0497C52.5236 29.0497 51.8404 29.0042 51.3849 28.9586V34.1967C52.5236 34.3334 53.8445 34.3789 54.4366 34.3789C60.0846 34.3789 61.9983 32.3748 64.23 25.5881L72.1556 1.31076H65.6419C62.8632 11.2404 61.451 16.5239 60.95 18.8924H60.9044C60.5401 16.7061 58.3994 9.46387 55.9853 1.31076H48.9708ZM90.0389 17.2983C89.4469 19.0747 88.2628 20.3956 85.986 20.3956C83.161 20.3956 81.3398 18.1182 81.3398 13.0623C81.3398 8.50748 83.0246 5.91114 86.0311 5.91114C88.582 5.91114 89.6747 7.23202 90.0852 9.14507H96.4162C96.3248 6.50331 94.0931 0.76416 86.1675 0.76416C78.9717 0.76416 74.7348 6.32106 74.7348 13.29C74.7348 20.3956 78.5161 25.4514 85.8483 25.4514C92.8639 25.4514 95.6414 21.2154 96.4162 17.2983H90.0389ZM112.218 0.76416C104.748 0.76416 100.331 5.91114 100.331 13.1988C100.331 20.2133 104.612 25.4514 111.9 25.4514C119.37 25.4514 123.651 20.2133 123.651 13.0623C123.651 5.68346 119.143 0.76416 112.218 0.76416ZM111.946 5.91114C115.225 5.91114 117.047 8.23411 117.047 13.1533C117.047 17.6627 115.271 20.35 112.037 20.35C108.894 20.35 106.935 17.6627 106.935 13.1079C106.935 8.14299 108.939 5.91114 111.946 5.91114ZM149.8 1.31076H143.286V13.8821C143.286 18.5281 142.057 20.1222 139.096 20.1222C136.272 20.1222 135.452 17.9815 135.452 15.3853V1.31076H128.938V16.7061C128.938 22.5363 131.991 25.4514 136.774 25.4514C139.825 25.4514 141.874 24.5405 143.286 22.1719C143.332 22.9918 143.377 24.2671 143.469 24.9048H149.845C149.8 22.8097 149.8 20.3044 149.8 18.0726V1.31076ZM156.585 24.9048H163.144V14.6109C163.144 8.14299 165.968 6.86767 170.705 7.00435V0.76416C166.696 0.809721 164.191 2.76833 163.144 5.45566C163.144 4.18034 163.052 1.85737 162.961 1.31076H156.539C156.585 3.31493 156.585 5.36454 156.585 7.73307V24.9048ZM173.827 17.7992C174.374 21.9897 177.29 25.4514 184.485 25.4514C191.636 25.4514 194.643 21.8987 194.643 17.9815C194.643 14.5199 193.504 11.8324 185.624 10.0105C181.798 9.09951 181.07 8.55291 181.07 7.36871C181.07 6.32106 181.798 5.36454 183.94 5.36454C186.991 5.36454 187.583 7.00435 187.811 7.86975H194.006C193.823 4.68138 191.363 0.76416 184.213 0.76416C177.107 0.76416 174.692 4.45357 174.692 7.91531C174.692 11.2404 175.923 13.6089 183.62 15.5218C186.991 16.3418 187.993 16.9338 187.993 18.437C187.993 19.8945 187.128 20.7599 184.713 20.7599C182.3 20.7599 180.75 19.7123 180.25 17.7992H173.827ZM220.767 14.5199C220.857 13.8366 220.857 13.3355 220.857 12.5157C220.857 6.63999 218.08 0.76416 210.018 0.76416C202.41 0.76416 198.63 6.04782 198.63 13.4722C198.63 19.6667 202.001 25.4514 209.79 25.4514C217.168 25.4514 219.764 20.7144 220.584 17.8448H214.07C213.433 19.2568 212.659 20.35 209.926 20.35C206.692 20.35 205.189 17.4804 205.189 14.5199H220.767ZM205.325 10.5115C205.599 7.59651 206.875 5.45566 209.971 5.45566C213.159 5.45566 214.253 7.77863 214.298 10.5115H205.325Z" fill="white"/>
</svg>
