<svg width="34" height="34" viewBox="0 0 34 34" fill="none" xmlns="http://www.w3.org/2000/svg">
<g clip-path="url(#clip0_35_23298)">
<path d="M33.4783 16.8492C33.4783 18.9998 33.0547 21.1293 32.2317 23.1163C31.4087 25.1032 30.2024 26.9085 28.6817 28.4293C27.161 29.95 25.3556 31.1563 23.3687 31.9793C21.3818 32.8023 19.2522 33.2259 17.1016 33.2259C14.951 33.2259 12.8214 32.8023 10.8345 31.9793C8.84757 31.1563 7.04221 29.95 5.52149 28.4293C4.00077 26.9085 2.79447 25.1032 1.97146 23.1163C1.14845 21.1293 0.724853 18.9998 0.724854 16.8492C0.724854 12.5058 2.45026 8.34028 5.52149 5.26905C8.59273 2.19781 12.7582 0.472412 17.1016 0.472412C21.445 0.472412 25.6105 2.19781 28.6817 5.26905C31.7529 8.34028 33.4783 12.5058 33.4783 16.8492Z" fill="url(#paint0_linear_35_23298)"/>
<g filter="url(#filter0_d_35_23298)">
<path d="M11.3755 28.2136C11.3755 29.2944 13.9403 29.1225 17.107 29.1225C20.2716 29.1225 22.8385 29.2944 22.8385 28.2136C22.8385 26.9117 20.2716 26.0623 17.107 26.0623C13.9403 26.0623 11.3755 26.9117 11.3755 28.2136Z" fill="black"/>
</g>
<path d="M11.3755 28.2136C11.3755 29.2944 13.9403 29.1225 17.107 29.1225C20.2716 29.1225 22.8385 29.2944 22.8385 28.2136C22.8385 26.9117 20.2716 26.0623 17.107 26.0623C13.9403 26.0623 11.3755 26.9117 11.3755 28.2136Z" fill="url(#paint1_linear_35_23298)"/>
<path d="M8.09439 20.5993C8.09439 18.9822 9.19566 17.6721 10.5508 17.6721C11.9079 17.6721 13.0071 18.9822 13.0071 20.5993C13.0071 21.2748 12.8167 21.895 12.4913 22.3883C12.3392 22.6155 12.1065 22.7764 11.8403 22.8387C11.5333 22.9123 11.0768 22.9922 10.5508 22.9922C10.0247 22.9922 9.56616 22.9123 9.26116 22.8387C8.99471 22.777 8.76186 22.6159 8.61023 22.3883C8.26751 21.855 8.08821 21.2332 8.09439 20.5993ZM21.195 20.5993C21.195 18.9822 22.2942 17.6721 23.6513 17.6721C25.0064 17.6721 26.1077 18.9822 26.1077 20.5993C26.1077 21.2748 25.9153 21.895 25.5919 22.3883C25.4402 22.6159 25.2074 22.777 24.9409 22.8387C24.5172 22.941 24.0853 22.9922 23.6513 22.9922C23.1253 22.9922 22.6688 22.9123 22.3617 22.8387C22.0943 22.7768 21.8602 22.6159 21.7067 22.3883C21.3663 21.8542 21.1885 21.2326 21.195 20.5993Z" fill="url(#paint2_linear_35_23298)"/>
<g filter="url(#filter1_i_35_23298)">
<path d="M8.09439 20.5993C8.09439 18.9822 9.19566 17.6721 10.5508 17.6721C11.9079 17.6721 13.0071 18.9822 13.0071 20.5993C13.0071 21.2748 12.8167 21.895 12.4913 22.3883C12.3392 22.6155 12.1065 22.7764 11.8403 22.8387C11.5333 22.9123 11.0768 22.9922 10.5508 22.9922C10.0247 22.9922 9.56616 22.9123 9.26116 22.8387C8.99471 22.777 8.76186 22.6159 8.61023 22.3883C8.26751 21.855 8.08821 21.2332 8.09439 20.5993ZM21.195 20.5993C21.195 18.9822 22.2942 17.6721 23.6513 17.6721C25.0064 17.6721 26.1077 18.9822 26.1077 20.5993C26.1077 21.2748 25.9153 21.895 25.5919 22.3883C25.4402 22.6159 25.2074 22.777 24.9409 22.8387C24.5172 22.941 24.0853 22.9922 23.6513 22.9922C23.1253 22.9922 22.6688 22.9123 22.3617 22.8387C22.0943 22.7768 21.8602 22.6159 21.7067 22.3883C21.3663 21.8542 21.1885 21.2326 21.195 20.5993Z" fill="black"/>
</g>
<path d="M10.885 19.578C10.8949 19.6252 10.8997 19.6732 10.8994 19.7213C10.8994 20.1348 10.5391 20.4726 10.0928 20.4726C9.64866 20.4726 9.28839 20.1348 9.28839 19.7234C9.28839 19.5535 9.3498 19.3959 9.45215 19.271C9.91067 19.3795 10.3938 19.4839 10.885 19.578ZM23.0174 20.4726C22.5855 20.4726 22.2334 20.1594 22.2129 19.7602C22.741 19.6824 23.2671 19.5862 23.7789 19.4818C23.8075 19.5596 23.8218 19.6415 23.8198 19.7254C23.8198 20.1348 23.4616 20.4726 23.0153 20.4726H23.0174Z" fill="#4F4F67"/>
<g filter="url(#filter2_d_35_23298)">
<path d="M19.1394 16.0319C19.1394 15.1189 19.4731 14.8037 20.0503 14.8037C20.6235 14.8037 20.8978 15.3687 21.0861 16.9858C23.3951 16.9858 27.3048 15.8927 27.6814 15.8927C28.0458 15.8927 28.2484 16.0667 28.3303 16.4392C28.402 16.7627 28.2832 17.0697 27.8779 17.258C26.6068 17.8455 22.8772 19.1719 19.7228 19.1719C19.3789 19.1719 19.1394 18.9959 19.1394 18.5558V16.0319ZM13.0989 16.9858C13.2851 15.3687 13.5615 14.8037 14.1346 14.8037C14.7119 14.8037 15.0455 15.1189 15.0455 16.0319V18.5558C15.0455 18.9959 14.806 19.1719 14.4621 19.1719C11.3078 19.1719 7.57819 17.8455 6.30702 17.258C5.90172 17.0697 5.783 16.7627 5.85464 16.4392C5.93652 16.0667 6.14122 15.8927 6.50353 15.8927C6.88017 15.8927 10.7899 16.9858 13.0989 16.9858Z" fill="black"/>
</g>
<path d="M19.1394 16.0319C19.1394 15.1189 19.4731 14.8037 20.0503 14.8037C20.6235 14.8037 20.8978 15.3687 21.0861 16.9858C23.3951 16.9858 27.3048 15.8927 27.6814 15.8927C28.0458 15.8927 28.2484 16.0667 28.3303 16.4392C28.402 16.7627 28.2832 17.0697 27.8779 17.258C26.6068 17.8455 22.8772 19.1719 19.7228 19.1719C19.3789 19.1719 19.1394 18.9959 19.1394 18.5558V16.0319ZM13.0989 16.9858C13.2851 15.3687 13.5615 14.8037 14.1346 14.8037C14.7119 14.8037 15.0455 15.1189 15.0455 16.0319V18.5558C15.0455 18.9959 14.806 19.1719 14.4621 19.1719C11.3078 19.1719 7.57819 17.8455 6.30702 17.258C5.90172 17.0697 5.783 16.7627 5.85464 16.4392C5.93652 16.0667 6.14122 15.8927 6.50353 15.8927C6.88017 15.8927 10.7899 16.9858 13.0989 16.9858Z" fill="url(#paint3_linear_35_23298)"/>
</g>
<defs>
<filter id="filter0_d_35_23298" x="9.32852" y="26.0623" width="15.5569" height="7.16424" filterUnits="userSpaceOnUse" color-interpolation-filters="sRGB">
<feFlood flood-opacity="0" result="BackgroundImageFix"/>
<feColorMatrix in="SourceAlpha" type="matrix" values="0 0 0 0 0 0 0 0 0 0 0 0 0 0 0 0 0 0 127 0" result="hardAlpha"/>
<feOffset dy="2.04697"/>
<feGaussianBlur stdDeviation="1.02348"/>
<feColorMatrix type="matrix" values="0 0 0 0 1 0 0 0 0 0.509681 0 0 0 0 0 0 0 0 0.371207 0"/>
<feBlend mode="normal" in2="BackgroundImageFix" result="effect1_dropShadow_35_23298"/>
<feBlend mode="normal" in="SourceGraphic" in2="effect1_dropShadow_35_23298" result="shape"/>
</filter>
<filter id="filter1_i_35_23298" x="8.09424" y="17.6721" width="18.0135" height="5.32007" filterUnits="userSpaceOnUse" color-interpolation-filters="sRGB">
<feFlood flood-opacity="0" result="BackgroundImageFix"/>
<feBlend mode="normal" in="SourceGraphic" in2="BackgroundImageFix" result="shape"/>
<feColorMatrix in="SourceAlpha" type="matrix" values="0 0 0 0 0 0 0 0 0 0 0 0 0 0 0 0 0 0 127 0" result="hardAlpha"/>
<feOffset/>
<feGaussianBlur stdDeviation="1.02348"/>
<feComposite in2="hardAlpha" operator="arithmetic" k2="-1" k3="1"/>
<feColorMatrix type="matrix" values="0 0 0 0 0.0387428 0 0 0 0 0.0406183 0 0 0 0 0.0875053 0 0 0 1 0"/>
<feBlend mode="normal" in2="shape" result="effect1_innerShadow_35_23298"/>
</filter>
<filter id="filter2_d_35_23298" x="5.63033" y="14.8037" width="22.9243" height="5.80104" filterUnits="userSpaceOnUse" color-interpolation-filters="sRGB">
<feFlood flood-opacity="0" result="BackgroundImageFix"/>
<feColorMatrix in="SourceAlpha" type="matrix" values="0 0 0 0 0 0 0 0 0 0 0 0 0 0 0 0 0 0 127 0" result="hardAlpha"/>
<feOffset dy="1.22818"/>
<feGaussianBlur stdDeviation="0.102348"/>
<feColorMatrix type="matrix" values="0 0 0 0 0.565875 0 0 0 0 0.151272 0 0 0 0 0 0 0 0 0.15024 0"/>
<feBlend mode="normal" in2="BackgroundImageFix" result="effect1_dropShadow_35_23298"/>
<feBlend mode="normal" in="SourceGraphic" in2="effect1_dropShadow_35_23298" result="shape"/>
</filter>
<linearGradient id="paint0_linear_35_23298" x1="17.1026" y1="0.473435" x2="17.1026" y2="22.4804" gradientUnits="userSpaceOnUse">
<stop stop-color="#E04300"/>
<stop offset="1" stop-color="#FFA320"/>
</linearGradient>
<linearGradient id="paint1_linear_35_23298" x1="17.107" y1="26.4778" x2="17.107" y2="29.1327" gradientUnits="userSpaceOnUse">
<stop stop-color="#3D0D00"/>
<stop offset="1" stop-color="#661C04"/>
</linearGradient>
<linearGradient id="paint2_linear_35_23298" x1="17.101" y1="17.6701" x2="17.101" y2="22.9922" gradientUnits="userSpaceOnUse">
<stop stop-color="#191A33"/>
<stop offset="0.872" stop-color="#3B426A"/>
</linearGradient>
<linearGradient id="paint3_linear_35_23298" x1="24.4923" y1="19.5793" x2="24.4923" y2="14.8037" gradientUnits="userSpaceOnUse">
<stop stop-color="#9A2F00"/>
<stop offset="1" stop-color="#D44800"/>
</linearGradient>
<clipPath id="clip0_35_23298">
<rect width="32.7514" height="32.7514" fill="white" transform="translate(0.723969 0.475342)"/>
</clipPath>
</defs>
</svg>
