<svg width="34" height="34" viewBox="0 0 34 34" fill="none" xmlns="http://www.w3.org/2000/svg">
<g clip-path="url(#clip0_35_23246)">
<path fill-rule="evenodd" clip-rule="evenodd" d="M33.341 16.8508C33.341 25.8575 25.9719 33.2265 16.9653 33.2265C7.95861 33.2265 0.589539 25.8575 0.589539 16.8508C0.589539 7.84417 7.95861 0.475098 16.9653 0.475098C25.9719 0.475098 33.341 7.84417 33.341 16.8508Z" fill="url(#paint0_linear_35_23246)"/>
<path fill-rule="evenodd" clip-rule="evenodd" d="M33.341 16.8508C33.341 25.8575 25.9719 33.2265 16.9653 33.2265C7.95861 33.2265 0.589539 25.8575 0.589539 16.8508C0.589539 7.84417 7.95861 0.475098 16.9653 0.475098C25.9719 0.475098 33.341 7.84417 33.341 16.8508Z" fill="url(#paint1_radial_35_23246)"/>
<path fill-rule="evenodd" clip-rule="evenodd" d="M33.341 16.8508C33.341 25.8575 25.9719 33.2265 16.9653 33.2265C7.95861 33.2265 0.589539 25.8575 0.589539 16.8508C0.589539 7.84417 7.95861 0.475098 16.9653 0.475098C25.9719 0.475098 33.341 7.84417 33.341 16.8508Z" fill="url(#paint2_radial_35_23246)"/>
<path fill-rule="evenodd" clip-rule="evenodd" d="M33.341 16.8508C33.341 25.8575 25.9719 33.2265 16.9653 33.2265C7.95861 33.2265 0.589539 25.8575 0.589539 16.8508C0.589539 7.84417 7.95861 0.475098 16.9653 0.475098C25.9719 0.475098 33.341 7.84417 33.341 16.8508Z" fill="url(#paint3_radial_35_23246)"/>
<path fill-rule="evenodd" clip-rule="evenodd" d="M33.341 16.8508C33.341 25.8575 25.9719 33.2265 16.9653 33.2265C7.95861 33.2265 0.589539 25.8575 0.589539 16.8508C0.589539 7.84417 7.95861 0.475098 16.9653 0.475098C25.9719 0.475098 33.341 7.84417 33.341 16.8508Z" fill="url(#paint4_radial_35_23246)"/>
<path fill-rule="evenodd" clip-rule="evenodd" d="M33.341 16.8508C33.341 25.8575 25.9719 33.2265 16.9653 33.2265C7.95861 33.2265 0.589539 25.8575 0.589539 16.8508C0.589539 7.84417 7.95861 0.475098 16.9653 0.475098C25.9719 0.475098 33.341 7.84417 33.341 16.8508Z" fill="url(#paint5_radial_35_23246)"/>
<path fill-rule="evenodd" clip-rule="evenodd" d="M20.4462 12.5519C20.2415 11.9378 13.6912 11.9378 13.4865 12.5519C13.2818 13.166 14.7147 13.9848 16.9663 13.9848C19.218 13.9848 20.6509 13.166 20.4462 12.5519Z" fill="url(#paint6_linear_35_23246)"/>
<path fill-rule="evenodd" clip-rule="evenodd" d="M12.8707 8.86795C12.8707 10.3008 12.0519 10.7102 10.8237 10.9149C9.59556 11.1196 8.57208 10.5055 8.57208 8.86795C8.57208 7.63977 9.18617 6.0022 10.8237 6.0022C12.2566 6.0022 12.8707 7.63977 12.8707 8.86795Z" fill="url(#paint7_radial_35_23246)"/>
<path fill-rule="evenodd" clip-rule="evenodd" d="M10.6205 6.82149C10.8252 7.02619 10.8252 7.64028 10.4159 7.84497C10.2112 8.04967 9.80176 8.25437 9.59706 7.84497C9.39237 7.43558 9.39237 7.23088 9.59706 6.82149C10.0065 6.61679 10.4159 6.61679 10.6205 6.82149Z" fill="#4E506A"/>
<path fill-rule="evenodd" clip-rule="evenodd" d="M21.0624 8.86795C21.0624 10.3008 21.8812 10.7102 23.314 10.9149C24.5422 11.1196 25.5657 10.5055 25.5657 8.86795C25.5657 7.63977 24.9516 6.0022 23.314 6.0022C21.6765 6.0022 21.0624 7.63977 21.0624 8.86795Z" fill="url(#paint8_radial_35_23246)"/>
<path fill-rule="evenodd" clip-rule="evenodd" d="M23.1066 6.82023C23.3113 7.02492 23.1066 7.43432 22.9019 7.84371C22.6972 8.04841 22.2878 8.04841 22.0831 7.84371C21.8784 7.63901 22.0831 7.22962 22.2878 6.82023C22.6972 6.41084 22.9019 6.41084 23.1066 6.82023Z" fill="#4E506A"/>
<path fill-rule="evenodd" clip-rule="evenodd" d="M7.55353 4.77247C7.14413 5.18186 7.55353 5.79595 8.16762 5.59126C9.39579 4.97717 11.8522 4.36308 13.8991 4.56777C14.5132 4.56777 14.7179 4.56777 14.5132 3.74899C14.5132 3.1349 13.6944 2.7255 12.0568 2.9302C9.60049 3.1349 7.96292 4.36308 7.55353 4.77247Z" fill="url(#paint9_radial_35_23246)"/>
<path fill-rule="evenodd" clip-rule="evenodd" d="M21.8849 2.9302C20.2474 2.7255 19.4286 3.1349 19.4286 3.74899C19.2239 4.56777 19.4286 4.56777 20.0427 4.56777C22.2943 4.36308 24.7507 4.97717 25.7742 5.59126C26.5929 6.00065 26.7976 5.18186 26.3883 4.77247C25.9789 4.36308 24.3413 3.1349 21.8849 2.9302Z" fill="url(#paint10_radial_35_23246)"/>
<path fill-rule="evenodd" clip-rule="evenodd" d="M20.4448 17.8747C16.1462 16.6465 14.7133 19.5122 14.7133 19.5122C14.7133 19.5122 15.1227 16.2371 10.8241 14.8042C6.73014 13.576 4.27378 17.4653 4.06909 19.7169C3.65969 24.8344 8.16302 30.5659 9.80059 32.6128C10.0053 33.2269 10.6194 33.2269 11.2335 33.2269C13.6898 32.6128 20.6495 30.3612 23.3106 25.8578C24.334 23.6062 24.5387 19.1029 20.4448 17.8747Z" fill="url(#paint11_linear_35_23246)"/>
<path fill-rule="evenodd" clip-rule="evenodd" d="M20.4448 17.8747C16.1462 16.6465 14.7133 19.5122 14.7133 19.5122C14.7133 19.5122 15.1227 16.2371 10.8241 14.8042C6.73014 13.576 4.27378 17.4653 4.06909 19.7169C3.65969 24.8344 8.16302 30.5659 9.80059 32.6128C10.0053 33.2269 10.6194 33.2269 11.2335 33.2269C13.6898 32.6128 20.6495 30.3612 23.3106 25.8578C24.334 23.6062 24.5387 19.1029 20.4448 17.8747Z" fill="url(#paint12_radial_35_23246)"/>
<path fill-rule="evenodd" clip-rule="evenodd" d="M20.4448 17.8747C16.1462 16.6465 14.7133 19.5122 14.7133 19.5122C14.7133 19.5122 15.1227 16.2371 10.8241 14.8042C6.73014 13.576 4.27378 17.4653 4.06909 19.7169C3.65969 24.8344 8.16302 30.5659 9.80059 32.6128C10.0053 33.2269 10.6194 33.2269 11.2335 33.2269C13.6898 32.6128 20.6495 30.3612 23.3106 25.8578C24.334 23.6062 24.5387 19.1029 20.4448 17.8747Z" fill="url(#paint13_radial_35_23246)"/>
<path fill-rule="evenodd" clip-rule="evenodd" d="M20.4448 17.8747C16.1462 16.6465 14.7133 19.5122 14.7133 19.5122C14.7133 19.5122 15.1227 16.2371 10.8241 14.8042C6.73014 13.576 4.27378 17.4653 4.06909 19.7169C3.65969 24.8344 8.16302 30.5659 9.80059 32.6128C10.0053 33.2269 10.6194 33.2269 11.2335 33.2269C13.6898 32.6128 20.6495 30.3612 23.3106 25.8578C24.334 23.6062 24.5387 19.1029 20.4448 17.8747Z" fill="url(#paint14_radial_35_23246)"/>
<path fill-rule="evenodd" clip-rule="evenodd" d="M20.4448 17.8747C16.1462 16.6465 14.7133 19.5122 14.7133 19.5122C14.7133 19.5122 15.1227 16.2371 10.8241 14.8042C6.73014 13.576 4.27378 17.4653 4.06909 19.7169C3.65969 24.8344 8.16302 30.5659 9.80059 32.6128C10.0053 33.2269 10.6194 33.2269 11.2335 33.2269C13.6898 32.6128 20.6495 30.3612 23.3106 25.8578C24.334 23.6062 24.5387 19.1029 20.4448 17.8747Z" fill="url(#paint15_radial_35_23246)"/>
<path fill-rule="evenodd" clip-rule="evenodd" d="M20.4448 17.8747C16.1462 16.6465 14.7133 19.5122 14.7133 19.5122C14.7133 19.5122 15.1227 16.2371 10.8241 14.8042C6.73014 13.576 4.27378 17.4653 4.06909 19.7169C3.65969 24.8344 8.16302 30.5659 9.80059 32.6128C10.0053 33.2269 10.6194 33.2269 11.2335 33.2269C13.6898 32.6128 20.6495 30.3612 23.3106 25.8578C24.334 23.6062 24.5387 19.1029 20.4448 17.8747Z" fill="url(#paint16_radial_35_23246)"/>
<path fill-rule="evenodd" clip-rule="evenodd" d="M20.4448 17.8747C16.1462 16.6465 14.7133 19.5122 14.7133 19.5122C14.7133 19.5122 15.1227 16.2371 10.8241 14.8042C6.73014 13.576 4.27378 17.4653 4.06909 19.7169C3.65969 24.8344 8.16302 30.5659 9.80059 32.6128C10.0053 33.2269 10.6194 33.2269 11.2335 33.2269C13.6898 32.6128 20.6495 30.3612 23.3106 25.8578C24.334 23.6062 24.5387 19.1029 20.4448 17.8747Z" fill="url(#paint17_radial_35_23246)"/>
<mask id="mask0_35_23246" style="mask-type:luminance" maskUnits="userSpaceOnUse" x="0" y="0" width="34" height="34">
<path fill-rule="evenodd" clip-rule="evenodd" d="M33.3379 16.8503C33.3379 25.857 25.9688 33.226 16.9621 33.226C7.9555 33.226 0.586426 25.857 0.586426 16.8503C0.586426 7.84368 7.9555 0.474609 16.9621 0.474609C25.9688 0.474609 33.3379 7.84368 33.3379 16.8503Z" fill="white"/>
</mask>
<g mask="url(#mask0_35_23246)">
<path fill-rule="evenodd" clip-rule="evenodd" d="M3.25841 16.236C2.23493 15.2126 0.392657 14.5985 0.187961 17.0548C-0.0167358 18.8971 0.80205 22.1722 3.05371 24.0145C8.78521 28.5178 13.9026 26.0615 14.1073 22.7863C14.312 20.33 11.2416 20.5347 10.4228 20.5347V20.33C10.6275 20.1253 11.0369 19.9206 11.2416 19.7159C12.0604 19.1018 11.651 18.0783 10.6275 18.283C10.4228 18.283 7.96643 19.1018 6.32886 18.4877C4.69128 17.8736 4.48659 17.2595 3.25841 16.236Z" fill="url(#paint18_radial_35_23246)"/>
</g>
<path d="M29.8694 16.4402C30.4835 15.212 31.507 15.6214 32.1211 15.8261C32.9399 16.0308 33.554 16.6449 33.554 17.8731C33.554 20.9435 33.1446 23.8093 30.4835 26.675C25.7755 31.9972 17.7923 31.1784 16.9735 27.9032C16.3595 25.4469 19.2252 25.0375 20.2487 25.0375V24.8328C19.8393 24.6281 19.6346 24.4234 19.2252 24.2187C18.4064 23.6046 18.6111 22.3764 19.6346 22.5811C20.8628 22.7858 22.5004 23.1952 23.7285 22.9905C27.6178 22.5811 28.2319 19.5107 29.8694 16.4402Z" fill="url(#paint19_radial_35_23246)"/>
</g>
<defs>
<linearGradient id="paint0_linear_35_23246" x1="16.9489" y1="31.6053" x2="16.9489" y2="2.91508" gradientUnits="userSpaceOnUse">
<stop stop-color="#F28A2D"/>
<stop offset="1" stop-color="#FDE86F"/>
</linearGradient>
<radialGradient id="paint1_radial_35_23246" cx="0" cy="0" r="1" gradientUnits="userSpaceOnUse" gradientTransform="translate(16.9489 16.8344) scale(16.3757)">
<stop stop-color="#F28A2D" stop-opacity="0"/>
<stop offset="1" stop-color="#F08423" stop-opacity="0.34"/>
</radialGradient>
<radialGradient id="paint2_radial_35_23246" cx="0" cy="0" r="1" gradientUnits="userSpaceOnUse" gradientTransform="translate(4.13219 17.5071) rotate(24.1484) scale(3.30789 2.55862)">
<stop stop-color="#F28A2D" stop-opacity="0.5"/>
<stop offset="1" stop-color="#F28A2D" stop-opacity="0"/>
</radialGradient>
<radialGradient id="paint3_radial_35_23246" cx="0" cy="0" r="1" gradientUnits="userSpaceOnUse" gradientTransform="translate(24.8823 24.5753) rotate(-38.243) scale(9.26868 3.37203)">
<stop stop-color="#F28A2D" stop-opacity="0.5"/>
<stop offset="1" stop-color="#F28A2D" stop-opacity="0"/>
</radialGradient>
<radialGradient id="paint4_radial_35_23246" cx="0" cy="0" r="1" gradientUnits="userSpaceOnUse" gradientTransform="translate(11.0162 4.62994) rotate(-10.3559) scale(3.50441 0.696881)">
<stop stop-color="#D45F00" stop-opacity="0.15"/>
<stop offset="1" stop-color="#F28A2D" stop-opacity="0"/>
</radialGradient>
<radialGradient id="paint5_radial_35_23246" cx="0" cy="0" r="1" gradientUnits="userSpaceOnUse" gradientTransform="translate(22.8839 4.87002) rotate(11.5352) scale(3.47164 0.690397)">
<stop stop-color="#D45F00" stop-opacity="0.15"/>
<stop offset="1" stop-color="#D45F00" stop-opacity="0"/>
</radialGradient>
<linearGradient id="paint6_linear_35_23246" x1="16.9658" y1="11.3428" x2="16.9658" y2="14.2575" gradientUnits="userSpaceOnUse">
<stop stop-color="#482314"/>
<stop offset="1" stop-color="#9A4111"/>
</linearGradient>
<radialGradient id="paint7_radial_35_23246" cx="0" cy="0" r="1" gradientUnits="userSpaceOnUse" gradientTransform="translate(10.809 9.21827) rotate(-90) scale(3.80659 3.80677)">
<stop stop-color="#3B446B"/>
<stop offset="0.688" stop-color="#202340"/>
</radialGradient>
<radialGradient id="paint8_radial_35_23246" cx="0" cy="0" r="1" gradientUnits="userSpaceOnUse" gradientTransform="translate(23.1232 9.21592) rotate(-90) scale(3.80659 3.80677)">
<stop stop-color="#3B446B"/>
<stop offset="0.688" stop-color="#202340"/>
</radialGradient>
<radialGradient id="paint9_radial_35_23246" cx="0" cy="0" r="1" gradientUnits="userSpaceOnUse" gradientTransform="translate(10.8318 3.97547) rotate(-104.427) scale(0.829965 3.84722)">
<stop stop-color="#E38200"/>
<stop offset="1" stop-color="#CD6700"/>
</radialGradient>
<radialGradient id="paint10_radial_35_23246" cx="0" cy="0" r="1" gradientUnits="userSpaceOnUse" gradientTransform="translate(22.9797 3.60825) rotate(-79.0815) scale(0.874476 5.18951)">
<stop stop-color="#E38200"/>
<stop offset="1" stop-color="#CD6700"/>
</radialGradient>
<linearGradient id="paint11_linear_35_23246" x1="14.4132" y1="20.4287" x2="10.2564" y2="33.8201" gradientUnits="userSpaceOnUse">
<stop stop-color="#F34462"/>
<stop offset="1" stop-color="#CC0820"/>
</linearGradient>
<radialGradient id="paint12_radial_35_23246" cx="0" cy="0" r="1" gradientUnits="userSpaceOnUse" gradientTransform="translate(18.6855 22.8591) rotate(20.3927) scale(5.38948 5.3895)">
<stop stop-color="#FF7091" stop-opacity="0.7"/>
<stop offset="1" stop-color="#FE6D8E" stop-opacity="0"/>
</radialGradient>
<radialGradient id="paint13_radial_35_23246" cx="0" cy="0" r="1" gradientUnits="userSpaceOnUse" gradientTransform="translate(9.32619 20.1444) rotate(20.3927) scale(5.38948 5.3895)">
<stop stop-color="#FF7091" stop-opacity="0.7"/>
<stop offset="1" stop-color="#FE6D8E" stop-opacity="0"/>
</radialGradient>
<radialGradient id="paint14_radial_35_23246" cx="0" cy="0" r="1" gradientUnits="userSpaceOnUse" gradientTransform="translate(8.74514 24.5527) rotate(101.61) scale(4.62749 6.37207)">
<stop stop-color="#9C0600"/>
<stop offset="1" stop-color="#9C0600" stop-opacity="0"/>
</radialGradient>
<radialGradient id="paint15_radial_35_23246" cx="0" cy="0" r="1" gradientUnits="userSpaceOnUse" gradientTransform="translate(23.9535 25.0242) rotate(30.6331) scale(2.78766 3.4986)">
<stop stop-color="#9C0600" stop-opacity="0.5"/>
<stop offset="1" stop-color="#9C0600" stop-opacity="0"/>
</radialGradient>
<radialGradient id="paint16_radial_35_23246" cx="0" cy="0" r="1" gradientUnits="userSpaceOnUse" gradientTransform="translate(4.79931 19.1304) rotate(-20.1593) scale(2.41597 3.11337)">
<stop stop-color="#9C0600" stop-opacity="0.5"/>
<stop offset="1" stop-color="#9C0600" stop-opacity="0"/>
</radialGradient>
<radialGradient id="paint17_radial_35_23246" cx="0" cy="0" r="1" gradientUnits="userSpaceOnUse" gradientTransform="translate(18.8789 28.9582) rotate(34.0715) scale(3.25227 3.5224)">
<stop stop-color="#9C0600" stop-opacity="0.999"/>
<stop offset="1" stop-color="#9C0600" stop-opacity="0"/>
</radialGradient>
<radialGradient id="paint18_radial_35_23246" cx="0" cy="0" r="1" gradientUnits="userSpaceOnUse" gradientTransform="translate(0.431785 15.7635) rotate(36.5187) scale(13.6093 13.6091)">
<stop stop-color="#EDA83A"/>
<stop offset="1" stop-color="#FFDC5E"/>
</radialGradient>
<radialGradient id="paint19_radial_35_23246" cx="0" cy="0" r="1" gradientUnits="userSpaceOnUse" gradientTransform="translate(32.641 16.3113) scale(18.1075)">
<stop stop-color="#EDA83A"/>
<stop offset="1" stop-color="#FFDC5E"/>
</radialGradient>
<clipPath id="clip0_35_23246">
<rect width="32.7514" height="32.7514" fill="white" transform="translate(0.591064 0.475342)"/>
</clipPath>
</defs>
</svg>
