<svg width="20" height="20" viewBox="0 0 20 20" fill="none" xmlns="http://www.w3.org/2000/svg">
<path d="M8.20835 1.45825H11.7917C15.1701 1.45825 16.8593 1.45825 17.9089 2.51164C18.9584 3.56503 18.9584 5.26043 18.9584 8.65125V9.10084C18.9584 12.4916 18.9584 14.187 17.9089 15.2404C16.8593 16.2938 15.1701 16.2938 11.7917 16.2938C11.2896 16.305 10.8897 16.3433 10.4969 16.4332C9.59369 16.6418 8.74677 17.0652 7.9157 17.4806C7.759 17.5589 7.60261 17.6371 7.44678 17.7134C6.04696 18.3984 5.34706 18.741 4.90783 18.4203C4.48872 18.107 4.47028 17.5161 4.58702 16.8625C4.63524 16.5926 4.65935 16.4576 4.60064 16.3728C4.54193 16.288 4.40675 16.2631 4.1364 16.2131C3.25615 16.0505 2.57534 15.7263 2.09122 15.2404C1.04169 14.187 1.04169 12.4916 1.04169 9.10084V8.65125C1.04169 5.26043 1.04169 3.56503 2.09122 2.51164C3.14075 1.45825 4.82995 1.45825 8.20835 1.45825Z" fill="#1B1B35"/>
</svg>
