<svg width="17" height="16" viewBox="0 0 17 16" fill="none" xmlns="http://www.w3.org/2000/svg">
<path d="M4.79959 12.1484C3.9683 12.0666 3.34557 11.8169 2.92793 11.3993C2.17883 10.6502 2.17883 9.44452 2.17883 7.03324V6.71354C2.17883 4.30223 2.17883 3.09658 2.92793 2.34748C3.67703 1.59839 4.88268 1.59839 7.29398 1.59839H9.85156C12.2628 1.59839 13.4685 1.59839 14.2176 2.34748C14.9667 3.09658 14.9667 4.30223 14.9667 6.71354V7.03324C14.9667 9.44452 14.9667 10.6502 14.2176 11.3993C13.4685 12.1484 12.2628 12.1484 9.85156 12.1484C9.49318 12.1564 9.20775 12.1836 8.92738 12.2475C8.16113 12.4239 7.45159 12.816 6.75042 13.1579C5.75131 13.6451 5.25176 13.8887 4.93826 13.6606C4.33851 13.2139 4.92474 11.8299 5.05611 11.1893" stroke="#1A2943" stroke-width="0.959091" stroke-linecap="round"/>
</svg>
