<svg width="21" height="21" viewBox="0 0 21 21" fill="none" xmlns="http://www.w3.org/2000/svg">
<path d="M18.3795 9.50531C18.6265 9.85168 18.75 10.0249 18.75 10.2813C18.75 10.5376 18.6265 10.7108 18.3795 11.0572C17.2695 12.6136 14.435 15.9688 10.625 15.9688C6.81501 15.9688 3.98046 12.6136 2.87053 11.0572C2.62351 10.7108 2.5 10.5376 2.5 10.2813C2.5 10.0249 2.62351 9.85168 2.87053 9.50531C3.98046 7.94892 6.81501 4.59375 10.625 4.59375C14.435 4.59375 17.2695 7.94892 18.3795 9.50531Z" stroke="white"/>
<path d="M13.0625 10.2812C13.0625 8.93502 11.9712 7.84375 10.625 7.84375C9.27877 7.84375 8.1875 8.93502 8.1875 10.2812C8.1875 11.6275 9.27877 12.7188 10.625 12.7188C11.9712 12.7188 13.0625 11.6275 13.0625 10.2812Z" stroke="white"/>
</svg>
