<svg width="34" height="34" viewBox="0 0 34 34" fill="none" xmlns="http://www.w3.org/2000/svg">
<g clip-path="url(#clip0_35_23272)">
<path d="M33.3788 16.8492C33.3788 18.9998 32.9552 21.1293 32.1322 23.1163C31.3092 25.1032 30.1029 26.9085 28.5822 28.4293C27.0614 29.95 25.2561 31.1563 23.2692 31.9793C21.2822 32.8023 19.1527 33.2259 17.002 33.2259C14.8514 33.2259 12.7219 32.8023 10.7349 31.9793C8.74802 31.1563 6.94266 29.95 5.42194 28.4293C3.90122 26.9085 2.69492 25.1032 1.87191 23.1163C1.0489 21.1293 0.625305 18.9998 0.625305 16.8492C0.625305 12.5058 2.35071 8.34028 5.42194 5.26905C8.49318 2.19781 12.6587 0.472412 17.002 0.472412C21.3454 0.472412 25.5109 2.19781 28.5822 5.26905C31.6534 8.34028 33.3788 12.5058 33.3788 16.8492Z" fill="url(#paint0_linear_35_23272)"/>
<path d="M6.76825 16.8671C6.76825 20.9917 8.8275 29.1325 17.0031 29.1325C25.1766 29.1325 27.2379 20.9917 27.2379 16.8671C27.2379 16.5416 23.9423 14.8037 17.0031 14.8037C10.0639 14.8037 6.76825 16.5416 6.76825 16.8671Z" fill="url(#paint1_linear_35_23272)"/>
<path d="M9.90961 26.0612C11.5554 28.0979 13.8132 29.1316 17.0105 29.1316C20.2099 29.1316 22.4452 28.0979 24.091 26.0612C22.9631 24.8576 20.8179 22.9907 17.0105 22.9907C13.2032 22.9907 11.0395 24.8576 9.90961 26.0612Z" fill="url(#paint2_linear_35_23272)"/>
<path d="M13.3451 8.95676C13.8834 9.34159 14.3727 9.88813 14.1843 10.5698C14.039 11.0897 13.7872 11.3251 13.3205 11.3271C11.7239 11.3517 9.82431 11.8512 8.19083 12.5819C8.05777 12.6413 7.78758 12.7621 7.51123 12.7559C7.25741 12.7498 6.99745 12.6372 6.84188 12.2708C6.70473 11.9494 6.69245 11.4766 7.40684 11.0467C8.52244 10.3712 9.97987 10.0642 11.3145 9.81035C10.4752 9.19012 9.57458 8.66405 8.62274 8.23828C7.74868 7.84117 7.84489 7.30281 7.96157 7.0101C8.22153 6.36121 9.20817 6.60889 10.1682 7.06332C11.288 7.58631 12.3523 8.22065 13.3451 8.95676ZM20.6671 8.95676C21.6582 8.22037 22.7212 7.586 23.8399 7.06332C24.8019 6.60889 25.7845 6.36121 26.0465 7.0101C26.1632 7.30281 26.2594 7.84117 25.3853 8.23828C24.4352 8.66352 23.534 9.19063 22.6977 9.81035C24.0282 10.0621 25.4877 10.3712 26.6012 11.0467C27.3156 11.4766 27.3013 11.9474 27.1662 12.2708C27.0086 12.6393 26.7507 12.7498 26.4968 12.7559C26.2205 12.7621 25.9503 12.6413 25.8172 12.5819C24.1858 11.8512 22.2862 11.3538 20.6916 11.3292C20.2249 11.3251 19.9732 11.0897 19.8278 10.5718C19.6415 9.89018 20.1287 9.34159 20.6671 8.95676Z" fill="#2A3755"/>
</g>
<defs>
<linearGradient id="paint0_linear_35_23272" x1="17.0031" y1="3.83046" x2="17.0031" y2="33.2249" gradientUnits="userSpaceOnUse">
<stop stop-color="#FEEA70"/>
<stop offset="1" stop-color="#F69B30"/>
</linearGradient>
<linearGradient id="paint1_linear_35_23272" x1="17.0031" y1="14.8037" x2="17.0031" y2="29.1325" gradientUnits="userSpaceOnUse">
<stop stop-color="#472315"/>
<stop offset="1" stop-color="#8B3A0E"/>
</linearGradient>
<linearGradient id="paint2_linear_35_23272" x1="17.0003" y1="22.9907" x2="17.0003" y2="28.0201" gradientUnits="userSpaceOnUse">
<stop stop-color="#FC607C"/>
<stop offset="1" stop-color="#D91F3A"/>
</linearGradient>
<clipPath id="clip0_35_23272">
<rect width="32.7514" height="32.7514" fill="white" transform="translate(0.624268 0.475342)"/>
</clipPath>
</defs>
</svg>
