<svg width="34" height="34" viewBox="0 0 34 34" fill="none" xmlns="http://www.w3.org/2000/svg">
<g clip-path="url(#clip0_35_23243)">
<path d="M16.9372 0.475098C12.5941 0.475098 8.4289 2.20039 5.35786 5.27143C2.28682 8.34248 0.561523 12.5077 0.561523 16.8508C0.561523 21.1939 2.28682 25.3592 5.35786 28.4302C8.4289 31.5012 12.5941 33.2265 16.9372 33.2265C21.2804 33.2265 25.4456 31.5012 28.5166 28.4302C31.5877 25.3592 33.313 21.1939 33.313 16.8508C33.313 12.5077 31.5877 8.34248 28.5166 5.27143C25.4456 2.20039 21.2804 0.475098 16.9372 0.475098Z" fill="url(#paint0_linear_35_23243)"/>
<path d="M21.9999 8.66211C17.5007 8.66211 16.9378 12.3958 16.9378 12.3958C16.9378 12.3958 16.3769 8.66211 11.8777 8.66211C7.55039 8.66211 6.28946 13.2105 6.81758 15.6423C8.20951 22.0697 16.9378 26.5731 16.9378 26.5731C16.9378 26.5731 25.6681 22.0697 27.06 15.6423C27.5861 13.2105 26.3231 8.66211 21.9999 8.66211Z" fill="white"/>
</g>
<defs>
<linearGradient id="paint0_linear_35_23243" x1="16.9372" y1="0.475098" x2="16.9372" y2="33.2265" gradientUnits="userSpaceOnUse">
<stop stop-color="#FF6680"/>
<stop offset="1" stop-color="#E61739"/>
</linearGradient>
<clipPath id="clip0_35_23243">
<rect width="32.7514" height="32.7514" fill="white" transform="translate(0.5578 0.475342)"/>
</clipPath>
</defs>
</svg>
