<svg width="34" height="34" viewBox="0 0 34 34" fill="none" xmlns="http://www.w3.org/2000/svg">
<g clip-path="url(#clip0_35_23240)">
<path d="M16.9015 0.475098C12.5584 0.475098 8.39314 2.20039 5.32209 5.27143C2.25105 8.34248 0.525757 12.5077 0.525757 16.8508C0.525757 21.1939 2.25105 25.3592 5.32209 28.4302C8.39314 31.5012 12.5584 33.2265 16.9015 33.2265C21.2446 33.2265 25.4098 31.5012 28.4809 28.4302C31.5519 25.3592 33.2772 21.1939 33.2772 16.8508C33.2772 12.5077 31.5519 8.34248 28.4809 5.27143C25.4098 2.20039 21.2446 0.475098 16.9015 0.475098Z" fill="url(#paint0_linear_35_23240)"/>
<path d="M25.423 15.4952C25.7833 15.747 26.1149 15.9967 26.1149 16.8749C26.1149 17.7551 25.6461 18.1112 25.1446 18.3589C25.3493 18.6926 25.4148 19.0958 25.3268 19.4766C25.1692 20.1807 24.5244 20.7273 23.9512 20.889C24.1989 21.2861 24.2767 21.677 23.9819 22.1581C23.6032 22.7619 23.2737 22.9912 21.8162 22.9912H15.88C13.8576 22.9912 12.8096 21.8736 12.8096 20.9442V16.1646C12.8096 13.6468 15.8125 11.5077 15.8125 9.75757L15.5955 7.57755C15.5853 7.4445 15.6119 7.11903 15.7142 7.02487C15.878 6.86316 16.3304 6.61548 17.0141 6.61548C17.4603 6.61548 17.7571 6.6994 18.1071 6.86726C19.2964 7.43426 19.6055 8.86919 19.6055 10.0237C19.6055 10.5784 18.7581 12.2405 18.6434 12.8157C18.6434 12.8157 20.4182 12.4227 22.4897 12.4084C24.6615 12.3961 26.0698 12.7973 26.0698 14.1319C26.0698 14.6662 25.6216 15.2025 25.423 15.4952ZM7.89688 14.8033H9.53445C9.86019 14.8033 10.1726 14.9327 10.4029 15.1631C10.6332 15.3934 10.7626 15.7058 10.7626 16.0315V23.81C10.7626 24.1357 10.6332 24.4481 10.4029 24.6784C10.1726 24.9088 9.86019 25.0382 9.53445 25.0382H7.89688C7.57115 25.0382 7.25875 24.9088 7.02843 24.6784C6.7981 24.4481 6.6687 24.1357 6.6687 23.81V16.0315C6.6687 15.7058 6.7981 15.3934 7.02843 15.1631C7.25875 14.9327 7.57115 14.8033 7.89688 14.8033Z" fill="white"/>
</g>
<defs>
<linearGradient id="paint0_linear_35_23240" x1="16.9015" y1="0.475098" x2="16.9015" y2="33.2265" gradientUnits="userSpaceOnUse">
<stop stop-color="#18AFFF"/>
<stop offset="1" stop-color="#0062DF"/>
</linearGradient>
<clipPath id="clip0_35_23240">
<rect width="32.7514" height="32.7514" fill="white" transform="translate(0.524597 0.475342)"/>
</clipPath>
</defs>
</svg>
