<svg width="34" height="34" viewBox="0 0 34 34" fill="none" xmlns="http://www.w3.org/2000/svg">
<g clip-path="url(#clip0_35_23289)">
<path d="M33.4425 16.8492C33.4425 18.9998 33.0189 21.1293 32.1959 23.1163C31.3729 25.1032 30.1666 26.9085 28.6459 28.4293C27.1252 29.95 25.3198 31.1563 23.3329 31.9793C21.346 32.8023 19.2164 33.2259 17.0658 33.2259C14.9152 33.2259 12.7856 32.8023 10.7987 31.9793C8.81177 31.1563 7.00641 29.95 5.48569 28.4293C3.96497 26.9085 2.75867 25.1032 1.93566 23.1163C1.11265 21.1293 0.689056 18.9998 0.689056 16.8492C0.689056 12.5058 2.41446 8.34028 5.48569 5.26905C8.55693 2.19781 12.7224 0.472412 17.0658 0.472412C21.4092 0.472412 25.5747 2.19781 28.6459 5.26905C31.7171 8.34028 33.4425 12.5058 33.4425 16.8492Z" fill="url(#paint0_linear_35_23289)"/>
<path d="M11.6086 26.6036C11.6086 26.8841 11.8011 27.0847 12.1204 27.0847C12.8389 27.0847 13.8316 25.8053 17.0679 25.8053C20.3041 25.8053 21.299 27.0847 22.0154 27.0847C22.3347 27.0847 22.5272 26.8841 22.5272 26.6036C22.5272 25.791 20.8097 22.9907 17.0679 22.9907C13.326 22.9907 11.6086 25.791 11.6086 26.6036Z" fill="url(#paint1_linear_35_23289)"/>
<path d="M8.06063 18.4877C8.06063 16.8296 9.10254 15.4868 10.3819 15.4868C11.6653 15.4868 12.7032 16.8296 12.7032 18.4877C12.7032 19.1795 12.5189 19.8182 12.216 20.3258C12.0796 20.5548 11.8581 20.7205 11.5998 20.7864C11.3133 20.8621 10.8773 20.944 10.3819 20.944C9.88448 20.944 9.45462 20.8621 9.16395 20.7864C8.90628 20.7204 8.68539 20.5547 8.54986 20.3258C8.22254 19.769 8.05478 19.1336 8.06063 18.4877ZM21.4355 18.4877C21.4355 16.8296 22.4754 15.4868 23.7547 15.4868C25.0382 15.4868 26.076 16.8296 26.076 18.4877C26.076 19.1795 25.8917 19.8182 25.5888 20.3258C25.5215 20.4394 25.4324 20.5385 25.3266 20.6175C25.2209 20.6966 25.1006 20.754 24.9727 20.7864C24.1743 20.9932 23.3351 20.9932 22.5368 20.7864C22.2791 20.7204 22.0582 20.5547 21.9227 20.3258C21.5967 19.7686 21.4283 19.1332 21.4355 18.4877Z" fill="url(#paint2_linear_35_23289)"/>
<g filter="url(#filter0_i_35_23289)">
<path d="M8.06063 18.4877C8.06063 16.8296 9.10254 15.4868 10.3819 15.4868C11.6653 15.4868 12.7032 16.8296 12.7032 18.4877C12.7032 19.1795 12.5189 19.8182 12.216 20.3258C12.0796 20.5548 11.8581 20.7205 11.5998 20.7864C11.3133 20.8621 10.8773 20.944 10.3819 20.944C9.88448 20.944 9.45462 20.8621 9.16395 20.7864C8.90628 20.7204 8.68539 20.5547 8.54986 20.3258C8.22254 19.769 8.05478 19.1336 8.06063 18.4877ZM21.4355 18.4877C21.4355 16.8296 22.4754 15.4868 23.7547 15.4868C25.0382 15.4868 26.076 16.8296 26.076 18.4877C26.076 19.1795 25.8917 19.8182 25.5888 20.3258C25.5215 20.4394 25.4324 20.5385 25.3266 20.6175C25.2209 20.6966 25.1006 20.754 24.9727 20.7864C24.1743 20.9932 23.3351 20.9932 22.5368 20.7864C22.2791 20.7204 22.0582 20.5547 21.9227 20.3258C21.5967 19.7686 21.4283 19.1332 21.4355 18.4877Z" fill="black"/>
</g>
<path d="M10.1371 16.8212C10.3991 17.0771 10.4155 17.5827 10.1719 17.9471C9.92627 18.3135 9.51688 18.4035 9.25487 18.1456C8.99286 17.8897 8.97853 17.3841 9.22007 17.0198C9.46571 16.6513 9.8751 16.5654 10.1371 16.8212ZM23.4199 16.8212C23.6819 17.0771 23.6983 17.5827 23.4567 17.9471C23.2111 18.3135 22.8017 18.4035 22.5356 18.1456C22.2756 17.8897 22.2613 17.3841 22.5049 17.0198C22.7485 16.6513 23.1579 16.5654 23.4199 16.8212Z" fill="#4E506A"/>
<path d="M9.20055 11.0221C9.88015 10.7089 10.4205 10.5718 10.8402 10.5718C11.4072 10.5718 11.7634 10.8174 11.966 11.2002C12.3242 11.8736 12.1625 12.019 11.5607 12.1398C9.29676 12.5983 7.02258 14.068 6.03594 14.985C5.42186 15.5582 4.83028 14.9236 5.14347 14.4242C5.4587 13.9247 6.72782 12.1623 9.20055 11.0221ZM22.1681 11.2002C22.3728 10.8174 22.7269 10.5738 23.2939 10.5738C23.7156 10.5738 24.256 10.7089 24.9335 11.0221C27.4063 12.1623 28.6754 13.9247 28.9886 14.4242C29.3017 14.9236 28.7143 15.5582 28.0981 14.985C27.1094 14.068 24.8373 12.5983 22.5713 12.1398C21.9695 12.021 21.8139 11.8757 22.1681 11.2002Z" fill="url(#paint3_linear_35_23289)"/>
<path d="M28.3205 33.2263C26.6256 33.2263 25.25 31.6952 25.25 29.8058C25.25 27.9185 25.9787 26.6433 26.5662 25.411C27.7903 22.8359 28.0319 22.4797 28.3205 22.4797C28.6091 22.4797 28.8506 22.8359 30.0747 25.411C30.6622 26.6433 31.3909 27.9185 31.3909 29.8058C31.3909 31.6952 30.0154 33.2263 28.3205 33.2263Z" fill="url(#paint4_linear_35_23289)"/>
<path d="M28.3163 28.3268C27.6449 28.3268 27.1004 27.7209 27.1004 26.9758C27.1004 26.2266 27.3891 25.721 27.6224 25.2318C28.1055 24.2124 28.2017 24.0732 28.3184 24.0732C28.431 24.0732 28.5272 24.2124 29.0103 25.2318C29.2436 25.7231 29.5322 26.2266 29.5322 26.9738C29.5322 27.7209 28.9877 28.3268 28.3163 28.3268Z" fill="url(#paint5_linear_35_23289)"/>
</g>
<defs>
<filter id="filter0_i_35_23289" x="8.06049" y="15.4868" width="18.0155" height="5.45728" filterUnits="userSpaceOnUse" color-interpolation-filters="sRGB">
<feFlood flood-opacity="0" result="BackgroundImageFix"/>
<feBlend mode="normal" in="SourceGraphic" in2="BackgroundImageFix" result="shape"/>
<feColorMatrix in="SourceAlpha" type="matrix" values="0 0 0 0 0 0 0 0 0 0 0 0 0 0 0 0 0 0 127 0" result="hardAlpha"/>
<feOffset/>
<feGaussianBlur stdDeviation="1.02348"/>
<feComposite in2="hardAlpha" operator="arithmetic" k2="-1" k3="1"/>
<feColorMatrix type="matrix" values="0 0 0 0 0.0411227 0 0 0 0 0.0430885 0 0 0 0 0.0922353 0 0 0 0.819684 0"/>
<feBlend mode="normal" in2="shape" result="effect1_innerShadow_35_23289"/>
</filter>
<linearGradient id="paint0_linear_35_23289" x1="17.0668" y1="3.83046" x2="17.0668" y2="33.2249" gradientUnits="userSpaceOnUse">
<stop stop-color="#FEEA70"/>
<stop offset="1" stop-color="#F69B30"/>
</linearGradient>
<linearGradient id="paint1_linear_35_23289" x1="17.0679" y1="22.9907" x2="17.0679" y2="27.0847" gradientUnits="userSpaceOnUse">
<stop stop-color="#472315"/>
<stop offset="1" stop-color="#8B3A0E"/>
</linearGradient>
<linearGradient id="paint2_linear_35_23289" x1="17.0673" y1="15.4868" x2="17.0673" y2="20.944" gradientUnits="userSpaceOnUse">
<stop stop-color="#191A33"/>
<stop offset="0.872" stop-color="#3B426A"/>
</linearGradient>
<linearGradient id="paint3_linear_35_23289" x1="17.067" y1="10.5738" x2="17.067" y2="15.2102" gradientUnits="userSpaceOnUse">
<stop stop-color="#E78E0D"/>
<stop offset="1" stop-color="#CB6000"/>
</linearGradient>
<linearGradient id="paint4_linear_35_23289" x1="28.3205" y1="31.2817" x2="28.3205" y2="24.408" gradientUnits="userSpaceOnUse">
<stop stop-color="#35CAFC"/>
<stop offset="1" stop-color="#007EDB"/>
</linearGradient>
<linearGradient id="paint5_linear_35_23289" x1="28.3163" y1="24.0732" x2="28.3163" y2="28.3268" gradientUnits="userSpaceOnUse">
<stop stop-color="#6AE1FF" stop-opacity="0.287"/>
<stop offset="1" stop-color="#A8E3FF" stop-opacity="0.799"/>
</linearGradient>
<clipPath id="clip0_35_23289">
<rect width="32.7514" height="32.7514" fill="white" transform="translate(0.690735 0.475342)"/>
</clipPath>
</defs>
</svg>
