<svg width="20" height="20" viewBox="0 0 20 20" fill="none" xmlns="http://www.w3.org/2000/svg">
<path fill-rule="evenodd" clip-rule="evenodd" d="M1.04163 10.5208C1.04163 9.19764 2.08097 8.125 3.36305 8.125C5.07251 8.125 6.45829 9.55523 6.45829 11.3195V14.5139C6.45829 16.2781 5.07251 17.7083 3.36305 17.7083C2.08097 17.7083 1.04163 16.6356 1.04163 15.3125V10.5208ZM3.36305 9.72223C2.93569 9.72223 2.58924 10.0798 2.58924 10.5208V15.3125C2.58924 15.7536 2.93569 16.1111 3.36305 16.1111C4.21778 16.1111 4.91068 15.396 4.91068 14.5139V11.3195C4.91068 10.4373 4.21778 9.72223 3.36305 9.72223Z" fill="#6662FF"/>
<path d="M10.6659 2.65422C11.2749 2.12421 12.2105 2.181 12.747 2.78812C12.8415 2.90632 13.0587 3.19407 13.1725 3.39948C13.6973 4.26647 13.8572 5.29912 13.616 6.28024C13.589 6.3899 13.5547 6.50077 13.502 6.67127L13.2741 7.40687C13.1795 7.71236 13.1224 7.89945 13.0931 8.03951C13.0713 8.11676 13.0821 8.27364 13.3001 8.28322C13.4502 8.2966 14.0381 8.29718 14.3662 8.29718C15.3972 8.29716 16.2343 8.29715 16.874 8.38181C17.5281 8.46839 18.1219 8.65947 18.5263 9.16639C18.6061 9.26647 18.6773 9.37306 18.739 9.48514C19.0553 10.0599 18.9883 10.679 18.7978 11.3021C18.6125 11.9085 18.2657 12.6551 17.8409 13.5698C17.4466 14.4187 17.0967 15.1722 16.7835 15.7006C16.4594 16.2473 16.113 16.6771 15.6341 17.0039C15.0732 17.3868 14.3253 17.5871 13.6851 17.6486C13.0643 17.7084 12.3018 17.7084 11.3454 17.7084C10.192 17.7084 8.76229 17.7084 8.0338 17.6136C7.2799 17.5153 6.64484 17.3056 6.13862 16.8151C5.62965 16.322 5.4095 15.6988 5.30686 14.9591C5.20838 14.2494 5.2084 13.3479 5.20841 12.2336L5.2084 11.2563C5.20807 10.158 5.20786 9.44022 5.46598 8.77456C5.72347 8.11061 6.20924 7.573 6.95606 6.74649L10.4645 2.86148C10.5308 2.78793 10.5985 2.7128 10.6659 2.65422Z" fill="#6662FF"/>
</svg>
