<svg width="34" height="34" viewBox="0 0 34 34" fill="none" xmlns="http://www.w3.org/2000/svg">
<g clip-path="url(#clip0_35_23277)">
<mask id="mask0_35_23277" style="mask-type:luminance" maskUnits="userSpaceOnUse" x="0" y="0" width="34" height="34">
<path d="M0.651642 0.474609H33.4031V33.226H0.651642V0.474609Z" fill="white"/>
</mask>
<g mask="url(#mask0_35_23277)">
<path d="M33.4051 16.8496C33.4051 19.0003 32.9815 21.1298 32.1585 23.1168C31.3355 25.1037 30.1292 26.909 28.6085 28.4298C27.0878 29.9505 25.2824 31.1568 23.2955 31.9798C21.3086 32.8028 19.179 33.2264 17.0284 33.2264C14.8778 33.2264 12.7482 32.8028 10.7613 31.9798C8.77436 31.1568 6.969 29.9505 5.44828 28.4298C3.92756 26.909 2.72126 25.1037 1.89825 23.1168C1.07524 21.1298 0.651642 19.0003 0.651642 16.8496C0.651642 12.5063 2.37704 8.34077 5.44828 5.26954C8.51951 2.1983 12.685 0.4729 17.0284 0.4729C21.3718 0.4729 25.5373 2.1983 28.6085 5.26954C31.6797 8.34077 33.4051 12.5063 33.4051 16.8496Z" fill="url(#paint0_linear_35_23277)"/>
<path d="M12.1999 22.7625C11.8765 26.5391 13.6881 29.1326 17.0246 29.1326C20.3612 29.1326 22.1727 26.5391 21.8493 22.7625C21.5279 18.9838 19.5669 16.8508 17.0246 16.8508C14.4823 16.8508 12.5213 18.9838 12.1999 22.7625Z" fill="url(#paint1_linear_35_23277)"/>
<path d="M7.81659 11.733C7.81659 10.0382 8.96084 8.6626 10.3753 8.6626C11.7897 8.6626 12.934 10.0382 12.934 11.733C12.934 13.43 11.7897 14.8035 10.3753 14.8035C8.96084 14.8035 7.81659 13.43 7.81659 11.733ZM21.1219 11.733C21.1219 10.0382 22.2682 8.6626 23.6806 8.6626C25.095 8.6626 26.2393 10.0382 26.2393 11.733C26.2393 13.43 25.095 14.8035 23.6806 14.8035C22.2682 14.8035 21.1219 13.43 21.1219 11.733Z" fill="url(#paint2_linear_35_23277)"/>
<g filter="url(#filter0_i_35_23277)">
<path d="M7.81659 11.733C7.81659 10.0382 8.96084 8.6626 10.3753 8.6626C11.7897 8.6626 12.934 10.0382 12.934 11.733C12.934 13.43 11.7897 14.8035 10.3753 14.8035C8.96084 14.8035 7.81659 13.43 7.81659 11.733ZM21.1219 11.733C21.1219 10.0382 22.2682 8.6626 23.6806 8.6626C25.095 8.6626 26.2393 10.0382 26.2393 11.733C26.2393 13.43 25.095 14.8035 23.6806 14.8035C22.2682 14.8035 21.1219 13.43 21.1219 11.733Z" fill="black"/>
</g>
<path d="M9.82598 9.82122C10.2067 9.90719 10.4196 10.3371 10.3009 10.7833C10.1842 11.2275 9.78094 11.5202 9.40021 11.4322C9.01947 11.3462 8.80659 10.9163 8.92531 10.4701C9.04199 10.028 9.44524 9.7332 9.82598 9.82122ZM23.4567 9.95018C23.8763 10.0464 24.1138 10.5233 23.9848 11.0146C23.8538 11.512 23.4076 11.8334 22.9818 11.7392C22.5622 11.6451 22.3227 11.1661 22.4537 10.6748C22.5827 10.1774 23.031 9.85602 23.4567 9.95018Z" fill="#4E506A"/>
<g filter="url(#filter1_d_35_23277)">
<path d="M23.3099 3.94671C23.4163 3.93648 23.5228 3.93238 23.6313 3.93238C24.6281 3.93238 25.6578 4.34996 26.4397 5.08278C26.5267 5.16588 26.5926 5.26862 26.6318 5.38239C26.6709 5.49617 26.6823 5.61768 26.6648 5.73674C26.6474 5.8558 26.6017 5.96895 26.5315 6.06671C26.4614 6.16448 26.3688 6.24402 26.2616 6.29867C26.1328 6.3612 25.9879 6.38294 25.8464 6.36099C25.7048 6.33905 25.5733 6.27446 25.4694 6.17585C24.9065 5.64364 24.1266 5.35707 23.4389 5.41848C23.2001 5.43658 22.9682 5.50681 22.7596 5.62423C22.5509 5.74164 22.3705 5.90339 22.2312 6.09807C22.1751 6.17393 22.1044 6.23782 22.0233 6.28601C21.9423 6.33419 21.8524 6.36569 21.7589 6.37865C21.6655 6.39162 21.5704 6.38579 21.4793 6.36151C21.3881 6.33723 21.3027 6.29499 21.2281 6.23726C21.0749 6.1161 20.9747 5.94013 20.9487 5.7465C20.9228 5.55287 20.973 5.35672 21.0889 5.19945C21.3468 4.84275 21.6789 4.54609 22.0622 4.32984C22.4456 4.1136 22.8712 3.9829 23.3099 3.94671ZM7.61992 5.08278C8.37934 4.3602 9.38031 3.9508 10.4284 3.93238C10.9231 3.92148 11.4131 4.03113 11.856 4.25188C12.299 4.47263 12.6815 4.79784 12.9707 5.19945C13.0865 5.3564 13.1372 5.5521 13.112 5.74555C13.0868 5.939 12.9878 6.1152 12.8356 6.23726C12.7608 6.29537 12.6751 6.33791 12.5835 6.3624C12.492 6.38689 12.3965 6.39282 12.3027 6.37985C12.2089 6.36688 12.1186 6.33527 12.0371 6.28688C11.9557 6.23848 11.8847 6.17429 11.8285 6.09807C11.6889 5.90377 11.5084 5.74241 11.2998 5.62536C11.0911 5.5083 10.8593 5.43838 10.6208 5.42052C9.93503 5.35707 9.15309 5.64569 8.59018 6.17585C8.52122 6.24114 8.43977 6.29179 8.35073 6.32478C8.26169 6.35778 8.1669 6.37242 8.07205 6.36783C7.97721 6.36324 7.88427 6.33951 7.79883 6.29808C7.71339 6.25665 7.63721 6.19836 7.57488 6.12673C7.44592 5.98067 7.37856 5.79033 7.38696 5.59567C7.39536 5.40101 7.47885 5.21718 7.61992 5.08278Z" fill="black"/>
</g>
<path d="M23.3099 3.94671C23.4163 3.93648 23.5228 3.93238 23.6313 3.93238C24.6281 3.93238 25.6578 4.34996 26.4397 5.08278C26.5267 5.16588 26.5926 5.26862 26.6318 5.38239C26.6709 5.49617 26.6823 5.61768 26.6648 5.73674C26.6474 5.8558 26.6017 5.96895 26.5315 6.06671C26.4614 6.16448 26.3688 6.24402 26.2616 6.29867C26.1328 6.3612 25.9879 6.38294 25.8464 6.36099C25.7048 6.33905 25.5733 6.27446 25.4694 6.17585C24.9065 5.64364 24.1266 5.35707 23.4389 5.41848C23.2001 5.43658 22.9682 5.50681 22.7596 5.62423C22.5509 5.74164 22.3705 5.90339 22.2312 6.09807C22.1751 6.17393 22.1044 6.23782 22.0233 6.28601C21.9423 6.33419 21.8524 6.36569 21.7589 6.37865C21.6655 6.39162 21.5704 6.38579 21.4793 6.36151C21.3881 6.33723 21.3027 6.29499 21.2281 6.23726C21.0749 6.1161 20.9747 5.94013 20.9487 5.7465C20.9228 5.55287 20.973 5.35672 21.0889 5.19945C21.3468 4.84275 21.6789 4.54609 22.0622 4.32984C22.4456 4.1136 22.8712 3.9829 23.3099 3.94671ZM7.61992 5.08278C8.37934 4.3602 9.38031 3.9508 10.4284 3.93238C10.9231 3.92148 11.4131 4.03113 11.856 4.25188C12.299 4.47263 12.6815 4.79784 12.9707 5.19945C13.0865 5.3564 13.1372 5.5521 13.112 5.74555C13.0868 5.939 12.9878 6.1152 12.8356 6.23726C12.7608 6.29537 12.6751 6.33791 12.5835 6.3624C12.492 6.38689 12.3965 6.39282 12.3027 6.37985C12.2089 6.36688 12.1186 6.33527 12.0371 6.28688C11.9557 6.23848 11.8847 6.17429 11.8285 6.09807C11.6889 5.90377 11.5084 5.74241 11.2998 5.62536C11.0911 5.5083 10.8593 5.43838 10.6208 5.42052C9.93503 5.35707 9.15309 5.64569 8.59018 6.17585C8.52122 6.24114 8.43977 6.29179 8.35073 6.32478C8.26169 6.35778 8.1669 6.37242 8.07205 6.36783C7.97721 6.36324 7.88427 6.33951 7.79883 6.29808C7.71339 6.25665 7.63721 6.19836 7.57488 6.12673C7.44592 5.98067 7.37856 5.79033 7.38696 5.59567C7.39536 5.40101 7.47885 5.21718 7.61992 5.08278Z" fill="url(#paint3_linear_35_23277)"/>
</g>
</g>
<defs>
<filter id="filter0_i_35_23277" x="7.81659" y="8.6626" width="18.4227" height="6.14087" filterUnits="userSpaceOnUse" color-interpolation-filters="sRGB">
<feFlood flood-opacity="0" result="BackgroundImageFix"/>
<feBlend mode="normal" in="SourceGraphic" in2="BackgroundImageFix" result="shape"/>
<feColorMatrix in="SourceAlpha" type="matrix" values="0 0 0 0 0 0 0 0 0 0 0 0 0 0 0 0 0 0 127 0" result="hardAlpha"/>
<feOffset/>
<feGaussianBlur stdDeviation="1.02348"/>
<feComposite in2="hardAlpha" operator="arithmetic" k2="-1" k3="1"/>
<feColorMatrix type="matrix" values="0 0 0 0 0.0980392 0 0 0 0 0.101961 0 0 0 0 0.2 0 0 0 0.819684 0"/>
<feBlend mode="normal" in2="shape" result="effect1_innerShadow_35_23277"/>
</filter>
<filter id="filter1_d_35_23277" x="1.24537" y="-0.16229" width="31.5683" height="14.7366" filterUnits="userSpaceOnUse" color-interpolation-filters="sRGB">
<feFlood flood-opacity="0" result="BackgroundImageFix"/>
<feColorMatrix in="SourceAlpha" type="matrix" values="0 0 0 0 0 0 0 0 0 0 0 0 0 0 0 0 0 0 127 0" result="hardAlpha"/>
<feOffset dy="2.04697"/>
<feGaussianBlur stdDeviation="3.07045"/>
<feColorMatrix type="matrix" values="0 0 0 0 0.803922 0 0 0 0 0.388235 0 0 0 0 0.00392157 0 0 0 0.145679 0"/>
<feBlend mode="normal" in2="BackgroundImageFix" result="effect1_dropShadow_35_23277"/>
<feBlend mode="normal" in="SourceGraphic" in2="effect1_dropShadow_35_23277" result="shape"/>
</filter>
<linearGradient id="paint0_linear_35_23277" x1="17.0294" y1="3.83095" x2="17.0294" y2="33.2254" gradientUnits="userSpaceOnUse">
<stop stop-color="#FEEA70"/>
<stop offset="1" stop-color="#F69B30"/>
</linearGradient>
<linearGradient id="paint1_linear_35_23277" x1="17.0246" y1="16.8508" x2="17.0246" y2="29.1326" gradientUnits="userSpaceOnUse">
<stop stop-color="#472315"/>
<stop offset="1" stop-color="#8B3A0E"/>
</linearGradient>
<linearGradient id="paint2_linear_35_23277" x1="17.0279" y1="8.6626" x2="17.0279" y2="14.8035" gradientUnits="userSpaceOnUse">
<stop stop-color="#191A33"/>
<stop offset="0.872" stop-color="#3B426A"/>
</linearGradient>
<linearGradient id="paint3_linear_35_23277" x1="17.0298" y1="3.93033" x2="17.0298" y2="6.38669" gradientUnits="userSpaceOnUse">
<stop stop-color="#E78E0D"/>
<stop offset="1" stop-color="#CB6000"/>
</linearGradient>
<clipPath id="clip0_35_23277">
<rect width="32.7514" height="32.7514" fill="white" transform="translate(0.657532 0.475342)"/>
</clipPath>
</defs>
</svg>
